<svg width="175" height="189" viewBox="0 0 175 189" fill="none" xmlns="http://www.w3.org/2000/svg">
<path d="M162.723 152.525C161.403 162.331 154.805 170.816 145.566 174.586C141.04 176.47 136.14 177.037 131.237 176.47C126.525 175.905 121.81 174.396 116.909 171.571C110.121 167.797 103.333 161.954 95.4153 153.281C107.859 138.009 115.399 124.057 118.228 111.616C119.548 105.77 119.737 100.491 119.172 95.588C118.418 90.8756 116.721 86.538 114.081 82.7673C108.236 74.2841 98.4326 69.3814 87.4972 69.3814C76.5618 69.3814 66.7583 74.4724 60.9139 82.7673C58.2733 86.538 56.5781 90.8756 55.8229 95.588C55.0695 100.491 55.2578 105.958 56.7665 111.616C59.5936 124.057 67.3233 138.198 79.5791 153.467C71.8493 162.142 64.8729 167.987 58.0849 171.757C53.1841 174.586 48.4698 176.095 43.7573 176.658C38.6663 177.225 33.7636 176.47 29.4279 174.775C20.1895 171.004 13.5917 162.517 12.2714 152.714C11.7063 148.001 12.083 143.289 13.9684 138.009C14.5334 136.122 15.477 134.241 16.4188 131.977C17.7391 128.961 19.2477 125.754 20.7545 122.548L20.9447 122.173C33.952 94.0794 47.9047 65.4224 62.4225 37.5206L62.9876 36.3868C64.4962 33.5616 66.003 30.5461 67.5136 27.7172C69.0203 24.6998 70.7174 21.8709 72.7911 19.4186C76.7501 14.8926 82.0295 12.4422 87.8739 12.4422C93.7183 12.4422 98.9977 14.8926 102.957 19.4186C105.03 21.8709 106.727 24.6998 108.236 27.7172C109.745 30.5461 111.252 33.5616 112.76 36.3868L113.327 37.5206C127.655 65.6107 141.607 94.2677 154.617 122.362V122.548C156.125 125.565 157.444 128.961 158.952 131.977C159.896 134.241 160.838 136.122 161.403 138.009C162.911 142.91 163.476 147.626 162.723 152.525ZM87.4972 143.664C77.317 130.845 70.7173 118.777 68.4553 108.599C67.5136 104.261 67.3233 100.491 67.8903 97.0967C68.267 94.0794 69.3989 91.4388 70.9057 89.1748C74.4881 84.0894 80.5208 80.8781 87.4972 80.8781C94.4736 80.8781 100.695 83.8973 104.089 89.1748C105.595 91.4388 106.727 94.0794 107.104 97.0967C107.669 100.491 107.481 104.45 106.539 108.599C104.277 118.591 97.6774 130.656 87.4972 143.664ZM172.526 133.86C171.585 131.598 170.641 129.148 169.699 127.074C168.191 123.682 166.682 120.474 165.362 117.457L165.173 117.271C152.166 88.9884 138.213 60.3313 123.507 32.0548L122.942 30.9209C121.434 28.092 119.925 25.0746 118.418 22.0592C116.531 18.6633 114.646 15.0847 111.63 11.6888C105.595 4.1474 96.924 0 87.6855 0C78.2588 0 69.7756 4.1474 63.5526 11.314C60.7255 14.7061 58.6518 18.2885 56.7665 21.6844C55.2578 24.6998 53.7492 27.7172 52.2405 30.5461L51.6755 31.6743C37.1595 59.9547 23.0184 88.6135 10.0093 116.894L9.82096 117.271C8.50065 120.286 6.99199 123.49 5.48333 126.886C4.5416 128.961 3.59798 131.223 2.65624 133.674C0.203962 140.648 -0.549426 147.248 0.392309 154.034C2.46789 168.175 11.8947 180.054 24.9038 185.332C29.8046 187.407 34.8956 188.349 40.175 188.349C41.6836 188.349 43.569 188.161 45.0777 187.97C51.2988 187.215 57.7082 185.145 63.9293 181.561C71.661 177.225 79.014 171.004 87.3088 161.954C95.6037 171.004 103.145 177.225 110.686 181.561C116.909 185.145 123.319 187.215 129.54 187.97C131.049 188.161 132.934 188.349 134.443 188.349C139.722 188.349 145 187.407 149.714 185.332C162.911 180.054 172.15 167.987 174.223 154.034C175.732 147.434 174.977 140.838 172.526 133.86Z" fill="#E0565B"/>
</svg>
